<?xml version="1.0" encoding="UTF-8"?><svg id="c" xmlns="http://www.w3.org/2000/svg" width="2096.15" height="506.16" xmlns:xlink="http://www.w3.org/1999/xlink" viewBox="0 0 2096.15 506.16"><defs><symbol id="a" viewBox="0 0 1011.06 673.36"><g><polygon points="175.06 0 286.66 270.16 433.13 0 503.02 213.95 278.16 673.36 0 0 175.06 0" fill="#4abfad"/><polygon points="466.81 0 623.73 0 528.97 190.25 466.81 0" fill="#f5b52a"/><polygon points="528.97 233.77 528.97 673.36 313.01 673.36 528.97 233.77" fill="#f5b52a"/><polygon points="560.76 197.15 560.76 673.36 732.12 673.36 732.12 470.46 816.72 470.46 884.76 305.73 732.12 305.73 732.12 195.24 930.4 195.24 1011.06 0 659.8 0 560.76 197.15" fill="#f04e26"/></g></symbol></defs><g id="d"><g><g><path d="m802.37,5.66h32.81l21.28,160.51h.59l21.28-160.51h29.85l-31.33,206.92h-43.16l-31.33-206.92Z" fill="#fff"/><path d="m923.86,5.66h32.52v206.92h-32.52V5.66Z" fill="#fff"/><path d="m987.11,202.08c-8.08-8.96-12.12-21.82-12.12-38.57v-11.82h30.74v14.19c0,13.4,5.62,20.1,16.85,20.1,5.51,0,9.7-1.63,12.56-4.88,2.85-3.25,4.29-8.52,4.29-15.81,0-8.67-1.97-16.3-5.91-22.91-3.94-6.6-11.23-14.53-21.87-23.8-13.4-11.82-22.76-22.51-28.08-32.07-5.32-9.56-7.98-20.35-7.98-32.37,0-16.36,4.14-29.01,12.42-37.98,8.28-8.96,20.29-13.45,36.06-13.45s27.34,4.48,35.32,13.45c7.98,8.97,11.97,21.83,11.97,38.58v8.57h-30.74v-10.64c0-7.09-1.38-12.27-4.14-15.52-2.76-3.25-6.8-4.88-12.12-4.88-10.84,0-16.26,6.6-16.26,19.8,0,7.49,2.02,14.48,6.06,20.99,4.04,6.5,11.38,14.39,22.02,23.65,13.6,11.82,22.95,22.57,28.08,32.22,5.12,9.66,7.69,20.99,7.69,33.99,0,16.95-4.19,29.96-12.56,39.02-8.38,9.07-20.54,13.6-36.51,13.6s-27.69-4.48-35.77-13.45Z" fill="#fff"/><path d="m1101.8,202.08c-8.28-8.96-12.41-21.82-12.41-38.57V5.66h32.51v160.21c0,7.09,1.43,12.22,4.29,15.37,2.85,3.16,6.95,4.73,12.27,4.73s9.41-1.58,12.27-4.73c2.85-3.15,4.29-8.28,4.29-15.37V5.66h31.33v157.85c0,16.75-4.14,29.61-12.42,38.57-8.28,8.97-20.3,13.45-36.06,13.45s-27.79-4.48-36.06-13.45Z" fill="#fff"/><path d="m1233.92,5.66h44.04l33.7,206.92h-32.52l-5.91-41.09v.59h-36.95l-5.91,40.5h-30.15l33.7-206.92Zm35.47,138.34l-14.48-102.28h-.59l-14.19,102.28h29.26Z" fill="#fff"/><path d="m1327.33,5.66h32.51v177.36h53.5v29.56h-86.02V5.66Z" fill="#fff"/><path d="m1429.01,5.66h32.52v206.92h-32.52V5.66Z" fill="#fff"/><path d="m1479.26,183.6l60.3-148.39h-57.34V5.66h92.22v28.97l-60.3,148.39h60.3v29.56h-95.18v-28.97Z" fill="#fff"/><path d="m1617.89,5.66h44.04l33.7,206.92h-32.51l-5.91-41.09v.59h-36.95l-5.91,40.5h-30.15l33.7-206.92Zm35.47,138.34l-14.48-102.28h-.59l-14.19,102.28h29.26Z" fill="#fff"/><path d="m1723.12,35.22h-33.99V5.66h100.5v29.56h-33.99v177.36h-32.52V35.22Z" fill="#fff"/><path d="m1805.29,5.66h32.51v206.92h-32.51V5.66Z" fill="#fff"/><path d="m1872.39,201.93c-8.47-9.06-12.71-21.87-12.71-38.43V54.73c0-16.55,4.24-29.36,12.71-38.43,8.47-9.06,20.69-13.6,36.65-13.6s28.18,4.54,36.65,13.6c8.47,9.07,12.71,21.87,12.71,38.43v108.78c0,16.55-4.24,29.37-12.71,38.43-8.48,9.07-20.69,13.6-36.65,13.6s-28.18-4.53-36.65-13.6Zm53.5-36.36V52.66c0-13.6-5.62-20.4-16.85-20.4s-16.85,6.8-16.85,20.4v112.92c0,13.6,5.62,20.4,16.85,20.4s16.85-6.8,16.85-20.4Z" fill="#fff"/><path d="m1980.28,5.66h40.79l31.63,123.85h.59V5.66h28.97v206.92h-33.4l-39.02-151.05h-.59v151.05h-28.97V5.66Z" fill="#fff"/><path d="m810.94,296.29h32.52v206.91h-32.52v-206.91Z" fill="#fff"/><path d="m867.69,296.29h40.79l31.63,123.85h.59v-123.85h28.97v206.91h-33.4l-39.02-151.05h-.59v151.05h-28.97v-206.91Z" fill="#fff"/><path d="m993.91,296.29h49.66c16.16,0,28.28,4.34,36.36,13.01,8.08,8.67,12.12,21.38,12.12,38.13v104.64c0,16.75-4.04,29.46-12.12,38.13-8.08,8.67-20.2,13.01-36.36,13.01h-49.66v-206.91Zm49.07,177.36c5.32,0,9.41-1.58,12.27-4.73,2.85-3.15,4.29-8.28,4.29-15.37v-107.59c0-7.09-1.43-12.22-4.29-15.37-2.86-3.15-6.95-4.73-12.27-4.73h-16.55v147.8h16.55Z" fill="#fff"/><path d="m1125.15,492.71c-8.28-8.96-12.42-21.82-12.42-38.58v-157.85h32.52v160.21c0,7.09,1.43,12.22,4.29,15.37,2.85,3.15,6.95,4.73,12.27,4.73s9.41-1.57,12.27-4.73c2.85-3.15,4.29-8.28,4.29-15.37v-160.21h31.33v157.85c0,16.75-4.14,29.61-12.42,38.58-8.28,8.97-20.3,13.45-36.06,13.45s-27.79-4.48-36.06-13.45Z" fill="#fff"/><path d="m1239.24,492.71c-8.08-8.96-12.12-21.82-12.12-38.58v-11.82h30.74v14.19c0,13.4,5.62,20.1,16.85,20.1,5.51,0,9.7-1.62,12.56-4.88,2.85-3.25,4.29-8.52,4.29-15.81,0-8.67-1.97-16.3-5.91-22.91-3.94-6.6-11.23-14.53-21.87-23.79-13.4-11.82-22.76-22.51-28.08-32.07-5.32-9.55-7.98-20.34-7.98-32.37,0-16.35,4.14-29.01,12.42-37.98,8.28-8.96,20.29-13.45,36.06-13.45s27.34,4.49,35.32,13.45c7.98,8.97,11.97,21.83,11.97,38.57v8.57h-30.74v-10.64c0-7.09-1.38-12.27-4.14-15.52-2.76-3.25-6.8-4.88-12.12-4.88-10.84,0-16.26,6.6-16.26,19.8,0,7.49,2.02,14.48,6.06,20.99,4.04,6.5,11.38,14.39,22.02,23.65,13.6,11.82,22.95,22.57,28.08,32.22,5.12,9.66,7.69,20.99,7.69,33.99,0,16.95-4.19,29.96-12.56,39.02-8.38,9.07-20.54,13.6-36.51,13.6s-27.69-4.48-35.77-13.45Z" fill="#fff"/><path d="m1368.12,325.85h-33.99v-29.56h100.5v29.56h-33.99v177.36h-32.52v-177.36Z" fill="#fff"/><path d="m1450.29,296.29h48.18c16.75,0,28.97,3.89,36.65,11.68,7.69,7.79,11.53,19.76,11.53,35.91v12.71c0,21.48-7.09,35.08-21.28,40.79v.59c7.88,2.37,13.45,7.2,16.7,14.48,3.25,7.29,4.88,17.05,4.88,29.26v36.36c0,5.91.19,10.69.59,14.34.39,3.65,1.38,7.24,2.96,10.79h-33.11c-1.18-3.35-1.97-6.5-2.36-9.46-.4-2.96-.59-8.28-.59-15.96v-37.84c0-9.46-1.53-16.06-4.58-19.8-3.06-3.74-8.33-5.62-15.81-5.62h-11.23v88.68h-32.52v-206.91Zm44.34,88.68c6.5,0,11.38-1.67,14.63-5.03,3.25-3.35,4.88-8.96,4.88-16.85v-15.96c0-7.49-1.33-12.9-3.99-16.26-2.66-3.35-6.85-5.03-12.56-5.03h-14.78v59.12h11.82Z" fill="#fff"/><path d="m1594.55,415.12l-39.31-118.83h34.58l22.17,75.97h.59l22.17-75.97h31.63l-39.31,118.83v88.09h-32.52v-88.09Z" fill="#fff"/><path d="m1728.44,296.29h86.02v29.56h-53.5v57.64h41.97v29.56h-41.97v90.16h-32.51v-206.91Z" fill="#fff"/><path d="m1845.79,296.29h44.04l33.7,206.91h-32.52l-5.91-41.09v.59h-36.95l-5.91,40.5h-30.15l33.7-206.91Zm35.47,138.34l-14.48-102.27h-.59l-14.19,102.27h29.26Z" fill="#fff"/><path d="m1939.2,296.29h32.51v206.91h-32.51v-206.91Z" fill="#fff"/><path d="m1995.95,296.29h48.18c16.75,0,28.97,3.89,36.65,11.68,7.69,7.79,11.53,19.76,11.53,35.91v12.71c0,21.48-7.09,35.08-21.28,40.79v.59c7.88,2.37,13.45,7.2,16.7,14.48,3.25,7.29,4.88,17.05,4.88,29.26v36.36c0,5.91.19,10.69.59,14.34.39,3.65,1.38,7.24,2.96,10.79h-33.11c-1.18-3.35-1.97-6.5-2.36-9.46-.4-2.96-.59-8.28-.59-15.96v-37.84c0-9.46-1.53-16.06-4.58-19.8-3.06-3.74-8.33-5.62-15.81-5.62h-11.23v88.68h-32.52v-206.91Zm44.34,88.68c6.5,0,11.38-1.67,14.63-5.03,3.25-3.35,4.88-8.96,4.88-16.85v-15.96c0-7.49-1.33-12.9-3.99-16.26-2.66-3.35-6.85-5.03-12.56-5.03h-14.78v59.12h11.82Z" fill="#fff"/></g><use width="1011.06" height="673.36" transform="scale(.74)" xlink:href="#a"/></g></g></svg>